<svg width="48" height="46" viewBox="0 0 48 46" fill="none" xmlns="http://www.w3.org/2000/svg">
<path d="M37.3066 20.3827C34.1983 20.3827 31.3776 22.6545 30.5995 25.7845C30.5862 25.8377 29.9453 29.9027 29.9453 29.9027C29.9179 29.9816 29.8601 30.0655 29.6773 30.0578C29.4609 30.0494 29.4285 29.9276 29.4129 29.8382L27.9178 19.6493C27.9161 19.6373 27.9142 19.6253 27.9122 19.6133C27.5928 17.6966 26.0143 16.3941 24.0705 16.4446C22.1606 16.4947 20.6697 17.8335 20.4125 19.7136C20.4125 19.7136 18.9901 26.6115 18.9861 26.6352C18.9711 26.7253 18.9484 26.9344 18.7192 26.9434C18.4905 26.9541 18.4566 26.7455 18.4346 26.6568C18.4201 26.5983 18.1013 25.6888 18.1013 25.6888C17.3074 22.7057 14.2364 20.3828 11.0625 20.3828C10.0269 20.3828 9.18748 21.2223 9.18748 22.2579C9.18748 23.2934 10.0269 24.1329 11.0625 24.1329C12.5481 24.1329 14.1482 25.3274 14.4867 26.6893C14.5012 26.7478 14.8215 27.6618 14.8215 27.6618C15.307 29.4284 16.9239 30.5999 18.7501 30.5998C20.6671 30.5245 22.345 29.1773 22.6781 27.2924C22.6781 27.2924 24.1301 20.2066 24.132 20.1978C24.1542 20.1928 24.1836 20.1921 24.2059 20.1958C24.2076 20.2022 25.7092 30.4273 25.7111 30.4393C26.029 32.3452 27.6565 33.7871 29.6252 33.7871C31.5003 33.7871 33.1484 32.5703 33.6011 30.749C33.6144 30.6957 34.2572 26.6182 34.2572 26.6182C34.644 25.1963 35.9425 24.1328 37.3065 24.1328C39.7936 24.0342 39.7931 20.4811 37.3066 20.3827Z" fill="#43B02A"/>
<path d="M24.0012 45.0259C21.3397 45.0261 18.6789 44.1645 16.4563 42.4408C16.4539 42.4388 16.4514 42.437 16.4488 42.435C11.5978 38.6652 7.74915 34.6089 5.00957 30.3788C1.68554 25.2461 0 19.8585 0 14.3659C0 6.98183 5.80383 0.974374 12.9376 0.974374C17.2055 0.945499 21.4822 3.12324 23.9624 6.62314C31.4753 -3.69741 47.8698 0.947937 48 14.4024C47.7508 27.2004 38.9177 36.7106 31.5515 42.435C29.3291 44.1622 26.665 45.0257 24.0012 45.0259ZM18.7461 39.471L18.7468 39.4714C21.8397 41.8754 26.1589 41.8764 29.2505 39.474C35.9681 34.2534 44.0214 25.6577 44.2503 14.3481C44.2413 9.03975 40.1233 4.7244 35.0628 4.7244C29.8044 4.7244 25.8752 8.68406 25.8752 12.2245C25.8752 13.26 25.0358 14.0995 24.0002 14.0995C22.9646 14.0995 22.1252 13.26 22.1252 12.2245C22.0692 8.12606 17.0152 4.55265 12.9376 4.7245C7.87159 4.7244 3.75003 9.04959 3.75003 14.3659C3.75003 25.4816 11.904 34.1529 18.7461 39.471Z" fill="#C3C3C3"/>
</svg>
