<svg width="48" height="48" viewBox="0 0 48 48" fill="none" xmlns="http://www.w3.org/2000/svg">
<path d="M47.9999 17.3436C47.9999 18.3791 47.1605 19.2186 46.1249 19.2186H44.2499V25.9685C44.2499 29.5506 41.7256 32.5544 38.3623 33.294C37.6398 35.5668 35.5091 37.2184 33 37.2184C30.5555 37.2184 28.4703 35.651 27.6964 33.4684H26.3439C25.3083 33.4684 24.4689 32.629 24.4689 31.5934C24.4689 30.5579 25.3083 29.7185 26.3439 29.7185H29.2501C30.2856 29.7185 31.1251 30.5579 31.1251 31.5934C31.1251 32.6273 31.9662 33.4684 33 33.4684C34.0339 33.4684 34.875 32.6273 34.875 31.5934C34.875 30.5579 35.7145 29.7185 36.75 29.7185C38.8177 29.7185 40.5 28.0362 40.5 25.9685V16.9088L36.7344 8.68707C35.7489 6.53515 33.7773 4.95895 31.4607 4.47071C29.1912 3.99249 26.7126 3.74996 24.0939 3.74996C21.4056 3.74996 18.8508 4.00243 16.5001 4.50042C14.2002 4.98764 12.2394 6.5615 11.2552 8.71051L7.50029 16.9088V25.031C7.50029 26.0666 6.66086 26.906 5.62531 26.906C4.58976 26.906 3.75033 26.0666 3.75033 25.031V19.2186H1.87535C0.839796 19.2186 0.000366211 18.3791 0.000366211 17.3436C0.000366211 16.308 0.839796 15.4686 1.87535 15.4686H4.03533L7.84585 7.14902C9.32212 3.92565 12.2669 1.56411 15.7229 0.831929C18.3286 0.279841 21.145 0 24.0939 0C26.972 0 29.7107 0.269622 32.2339 0.801367C35.7085 1.53364 38.6655 3.89781 40.1438 7.12559L43.9649 15.4686H46.1249C47.1605 15.4686 47.9999 16.308 47.9999 17.3436ZM34.9688 19.2186H13.0315C11.9959 19.2186 11.1565 18.3791 11.1565 17.3436C11.1565 16.308 11.9959 15.4686 13.0315 15.4686H34.9688C36.0043 15.4686 36.8438 16.308 36.8438 17.3436C36.8438 18.3791 36.0043 19.2186 34.9688 19.2186ZM34.4063 22.5935C33.1119 22.5935 32.0626 23.6429 32.0626 24.9373C32.0626 26.2317 33.1119 27.281 34.4063 27.281C35.7007 27.281 36.75 26.2317 36.75 24.9373C36.75 23.6429 35.7007 22.5935 34.4063 22.5935Z" fill="#C3C3C3"/>
<path d="M28.0312 46.1246C28.0312 47.1601 27.1918 47.9995 26.1563 47.9995H23.9898C23.9859 47.9995 23.9818 48 23.9778 48C23.9735 48 23.9692 47.9995 23.9648 47.9995H3.46898C2.43342 47.9995 1.59399 47.1601 1.59399 46.1246C1.59399 45.089 2.43342 44.2496 3.46898 44.2496H4.32087L10.426 26.9516C11.0914 25.0662 12.8132 23.8479 14.8126 23.8479C16.812 23.8479 18.5338 25.0662 19.1992 26.9516L25.3043 44.2496H26.1562C27.1918 44.2496 28.0312 45.089 28.0312 46.1246ZM8.29752 44.2496H21.3277L15.663 28.1995C15.4714 27.6565 15.0045 27.5978 14.8126 27.5978C14.6207 27.5978 14.1538 27.6564 13.9622 28.1995L8.29752 44.2496Z" fill="#43B02A"/>
</svg>
