<svg width="48" height="48" viewBox="0 0 48 48" fill="none" xmlns="http://www.w3.org/2000/svg">
<path d="M0.632129 35.7924C1.85244 33.4483 4.61488 32.4597 7.20055 33.4405C9.00387 34.125 11.2088 34.9616 13.6088 35.6235C13.3873 34.5578 13.4978 33.4293 13.9405 32.3563C14.5859 30.7919 15.9123 29.628 17.5795 29.1631C18.4321 28.9254 19.3572 28.8719 20.3293 29.0041C26.7417 29.8761 30.56 27.7079 33.9289 25.7947C36.1931 24.5089 38.3319 23.2943 40.8356 23.2943C43.7582 23.2943 46.6352 24.3155 46.6352 24.3155C47.6217 24.6243 48.1712 25.6743 47.8623 26.6608C47.5536 27.6473 46.5034 28.1965 45.5171 27.8879C45.5171 27.8879 43.1247 27.0376 40.8356 27.0376C39.3206 27.0376 37.757 27.9255 35.7774 29.0497C32.8131 30.7331 28.9211 32.9438 23.1356 32.9436C22.0953 32.9436 20.993 32.872 19.8247 32.7131C19.3674 32.651 18.9386 32.6702 18.5851 32.7687C18.1905 32.8787 17.6649 33.1442 17.4009 33.784C17.1961 34.2801 17.1859 34.7444 17.3705 35.1638C17.5968 35.6784 18.1128 36.1049 18.8231 36.3646C19.8464 36.7387 21.3059 36.9384 22.9614 36.9572C24.7419 36.9685 26.4798 36.765 28.0071 36.3636C29.0069 36.1007 30.0303 36.6984 30.293 37.6981C30.5558 38.6979 29.9583 39.7213 28.9585 39.9839C27.1695 40.4541 25.1139 40.7005 22.9615 40.7005C15.8461 40.6701 9.75458 38.4136 5.87243 36.9402C5.22185 36.6935 4.32599 36.8036 3.93557 37.5535C3.58445 38.228 3.84292 39.0675 4.51185 39.4248C9.20919 41.9343 14.66 44.2566 22.6702 44.2566C29.801 44.2566 36.3694 41.5049 40.6238 39.1965C43.9012 37.418 46.296 37.9798 46.5583 38.0498L46.5551 38.0616C47.3563 38.2735 47.9478 39.0012 47.9478 39.869C47.9478 40.9027 47.1098 41.7407 46.0761 41.7407C45.8957 41.7407 45.7218 41.7137 45.5567 41.6661C45.237 41.6282 44.0832 41.5781 42.4089 42.4866C37.7736 45.0017 30.5863 47.9999 22.6702 47.9999C12.6187 47.9999 5.95188 44.4381 2.74802 42.7265C0.277922 41.407 -0.661265 38.2771 0.632129 35.7924Z" fill="#43B02A"/>
<path d="M5.55578 29.3772C4.52208 29.3772 3.68414 28.5393 3.68414 27.5056V18.1953C3.68414 14.7149 5.33633 11.3769 8.10364 9.26618L17.1759 2.29705C21.1908 -0.765038 26.7918 -0.765132 30.8017 2.29322L39.9705 9.2645C42.7814 11.4085 44.3923 14.6455 44.3923 18.1474C44.3923 19.181 43.5543 20.019 42.5206 20.019C41.4869 20.019 40.649 19.181 40.649 18.1474C40.649 15.823 39.575 13.6707 37.7026 12.2426L28.5339 5.27127C25.8585 3.23062 22.1244 3.23072 19.4512 5.26949L10.3789 12.2386C8.52888 13.6497 7.42742 15.8749 7.42742 18.1952V27.5055C7.42742 28.5393 6.58949 29.3772 5.55578 29.3772ZM20.2481 11.8774C18.956 11.8774 17.9086 12.9249 17.9086 14.2169C17.9086 15.509 18.956 16.5565 20.2481 16.5565C21.5402 16.5565 22.5877 15.509 22.5877 14.2169C22.5877 12.9249 21.5402 11.8774 20.2481 11.8774ZM30.0742 14.2169C30.0742 15.509 29.0268 16.5565 27.7347 16.5565C26.4426 16.5565 25.3951 15.509 25.3951 14.2169C25.3951 12.9249 26.4426 11.8774 27.7347 11.8774C29.0268 11.8774 30.0742 12.9249 30.0742 14.2169ZM22.5877 21.7035C22.5877 22.9956 21.5402 24.043 20.2481 24.043C18.956 24.043 17.9086 22.9956 17.9086 21.7035C17.9086 20.4114 18.956 19.3639 20.2481 19.3639C21.5402 19.3639 22.5877 20.4114 22.5877 21.7035ZM30.0742 21.7035C30.0742 22.9956 29.0268 24.043 27.7347 24.043C26.4426 24.043 25.3951 22.9956 25.3951 21.7035C25.3951 20.4114 26.4426 19.3639 27.7347 19.3639C29.0268 19.3639 30.0742 20.4114 30.0742 21.7035Z" fill="#FE7333"/>
</svg>
