<svg width="48" height="48" viewBox="0 0 48 48" fill="none" xmlns="http://www.w3.org/2000/svg">
<path d="M17.832 47.4359C18.5584 46.6983 18.5493 45.5114 17.8117 44.7849L14.0982 41.1277C13.0926 40.12 12.4796 38.7828 12.3721 37.3618C12.3021 36.4371 11.5665 35.7026 10.6418 35.6339C9.21745 35.5281 7.8774 34.9149 6.86737 33.9071L3.21024 30.1936C2.48374 29.456 1.29684 29.447 0.559194 30.1734C-0.178364 30.8998 -0.187455 32.0867 0.538948 32.8243L4.20171 36.5435C4.20508 36.5469 4.20846 36.5503 4.21174 36.5536C5.49771 37.8395 7.11285 38.7319 8.86559 39.1428C9.278 40.8904 10.1693 42.5011 11.4517 43.7834C11.4551 43.7867 11.4583 43.7901 11.4618 43.7934L15.181 47.4562C15.5462 47.8157 16.0213 47.9951 16.4962 47.9951C16.9809 47.9951 17.4652 47.8084 17.832 47.4359Z" fill="#43B02A"/>
<path d="M43.3036 42.8394C43.2453 42.8394 43.1871 42.8382 43.1288 42.8357C41.9754 42.7862 40.887 42.3057 40.0641 41.4828L28.9424 30.2965C28.5514 29.9303 28.0139 29.9303 27.6208 30.3004L19.2314 38.7359C17.4072 40.4294 14.8901 37.9235 16.5732 36.092L24.9661 27.6529C26.7143 25.8306 29.85 25.8301 31.5973 27.6493L42.7188 38.8356C42.877 38.9937 43.0703 39.0806 43.2897 39.09C43.4022 39.0938 43.5981 39.0396 43.7771 38.8682C44.551 38.1185 44.284 35.8474 43.6262 34.7271L33.8862 20.5962C33.3717 19.8496 33.4652 18.8419 34.1082 18.2027L42.7029 9.66097C43.736 8.62779 44.2403 7.48804 44.2403 6.18032C44.2403 4.01545 42.8629 3.7651 41.8268 3.7651C40.5111 3.7651 39.3673 4.26927 38.3301 5.30648L29.7924 13.897C29.1533 14.5401 28.1456 14.6337 27.3989 14.119L13.2679 4.37912C12.1505 3.72245 9.87759 3.45336 9.12681 4.22822C8.95547 4.40715 8.90027 4.60257 8.90514 4.71552C8.91461 4.93494 9.0015 5.1283 9.16355 5.29036L20.342 16.4041C22.1647 18.1526 22.1652 21.288 20.3459 23.0356C20.3425 23.039 20.3391 23.0423 20.3357 23.0456L11.8131 31.4385C11.0754 32.1649 9.88855 32.1559 9.16215 31.4182C8.43565 30.6806 8.44484 29.4937 9.18249 28.7673L17.6987 20.3805C18.0649 19.9861 18.065 19.4533 17.6948 19.0588L6.51617 7.94525C5.68938 7.11827 5.20892 6.02989 5.15934 4.87655C5.109 3.70493 5.56818 2.52337 6.41934 1.63482C8.16543 -0.310444 12.1323 -0.57223 15.1962 1.16261C15.2409 1.1882 15.2844 1.21566 15.3268 1.2449L28.2371 10.1434L35.6749 2.65956C38.5021 -0.384771 43.8731 -0.956427 46.3948 1.80081C49.0523 4.66462 48.1918 9.63013 45.3499 12.3161L37.862 19.758L46.7605 32.6683C46.7898 32.7106 46.8171 32.7542 46.8428 32.7989C48.5775 35.8576 48.3147 39.8347 46.3706 41.5757C45.5263 42.3845 44.4173 42.8394 43.3036 42.8394Z" fill="#C3C3C3"/>
</svg>
